<svg width="254" height="40" viewBox="0 0 254 40" fill="none" xmlns="http://www.w3.org/2000/svg">
<path d="M160.906 36.2583L160.924 36.2794L160.942 36.3001C162.282 37.8182 164.098 38.5742 166.033 38.5742C167.889 38.5742 169.7 37.8992 171.074 36.4166L171.077 36.4137C171.789 35.6443 172.252 34.7822 172.541 33.908C172.558 33.9818 172.577 34.0559 172.596 34.13L172.609 34.1765L172.622 34.2228C173.153 36.0513 174.372 37.4461 175.988 38.2751C177.572 39.0877 179.437 39.3271 181.294 38.6505C181.46 38.5906 181.622 38.5247 181.778 38.4532C182.472 38.535 183.176 38.5742 183.889 38.5742C185.982 38.5742 188.002 38.2466 189.886 37.5109L189.903 37.5043L189.92 37.4976C191.766 36.758 193.406 35.6796 194.788 34.258C194.925 34.1168 195.059 33.9732 195.189 33.8271C195.469 34.7068 195.922 35.5771 196.627 36.3566C197.962 37.8343 199.754 38.5742 201.665 38.5742C203.531 38.5742 205.311 37.8852 206.671 36.4534L206.689 36.4351L206.706 36.4166C208.209 34.7957 208.602 32.7623 208.602 31.0718V26.5331C208.602 24.9803 208.653 23.7401 208.743 22.7859L208.743 22.7813C208.798 22.1873 208.878 21.7069 208.967 21.3248L208.99 21.3325L209.032 21.3455C209.454 21.4766 209.855 21.593 210.21 21.6808L210.22 21.6832C210.452 21.7405 211.067 21.8924 211.726 21.8924C212.589 21.8924 213.382 21.7149 214.095 21.4146V27.1104C214.095 28.9643 214.235 30.7158 214.63 32.2198L214.637 32.2447L214.644 32.2695C215.194 34.264 216.394 35.9073 218.126 37.0376C219.986 38.2505 222.224 38.5742 224.273 38.5742C226.318 38.5742 228.432 38.3261 230.222 37.455C230.684 37.2302 231.158 36.9471 231.61 36.5903C232.099 36.8699 232.605 37.1181 233.12 37.339C235.16 38.2144 237.422 38.5742 239.782 38.5742C242.171 38.5742 244.442 38.2592 246.472 37.4801L246.482 37.4763L246.492 37.4726C248.553 36.6701 250.377 35.3911 251.669 33.5098L251.675 33.4997L251.682 33.4897C252.953 31.6163 253.5 29.4768 253.5 27.2696C253.5 25.4479 252.976 23.7065 251.892 22.1929C251.647 21.8434 251.381 21.516 251.097 21.209C252.012 20.0635 252.446 18.6839 252.446 17.2765C252.446 15.6992 251.893 14.3272 251.163 13.2226C250.388 12.0295 249.352 11.103 248.243 10.3798C247.021 9.57479 245.636 9.02824 244.199 8.65546C242.674 8.25626 241.051 8.08208 239.365 8.08208C237.138 8.08208 234.982 8.4434 233.034 9.33561C232.223 9.70375 231.454 10.15 230.749 10.6827C230.598 10.5138 230.435 10.3514 230.261 10.1962C229.528 9.52781 228.714 9.11527 227.909 8.8716C227.902 7.93703 227.847 6.97551 227.668 6.11751C227.405 4.76224 226.738 3.54648 225.714 2.5948C224.468 1.43622 222.852 0.696731 220.992 0.696731C219.804 0.696731 218.623 0.991726 217.548 1.62617C216.57 2.19068 215.723 2.99435 215.121 4.03657C214.553 5.00684 214.279 6.03541 214.177 7.00322L214.172 7.05325L214.168 7.10338C214.118 7.72668 214.097 8.49008 214.095 9.34762C212.5 8.52836 210.775 8.08208 208.962 8.08208C207.658 8.08208 206.302 8.31816 205.044 8.93399C203.94 8.3106 202.721 8.08208 201.625 8.08208C199.661 8.08208 197.615 8.83659 196.243 10.7365C195.761 11.4043 195.431 12.123 195.208 12.8483C195.078 12.7025 194.945 12.5591 194.808 12.4182L194.802 12.4125C194.795 12.3846 194.787 12.3568 194.779 12.3289L194.768 12.2928C194.229 10.4001 192.949 9.03115 191.371 8.22165C189.763 7.39677 187.9 7.19656 186.072 7.87014C185.851 7.95179 185.638 8.04421 185.435 8.14585C184.924 8.10293 184.408 8.08208 183.889 8.08208C181.814 8.08208 179.809 8.42301 177.927 9.16665C176.068 9.88807 174.413 10.9535 173.028 12.3789C173.009 12.3991 172.989 12.4194 172.97 12.4397V7.50238C172.97 5.85243 172.603 3.82023 171.114 2.19948C169.737 0.6861 167.907 0 166.033 0C164.368 0 162.723 0.543105 161.411 1.75325C159.99 0.737109 158.358 0.497665 157.085 0.497665H143.166C141.953 0.497665 140.618 0.674395 139.356 1.25556C137.893 1.92085 136.789 3.05056 136.129 4.46503C135.525 5.74668 135.354 7.1085 135.354 8.31855V12.7091C134.521 11.6242 133.472 10.7339 132.238 10.0622C130.429 9.07812 128.431 8.67517 126.394 8.67517C124.509 8.67517 122.684 9.08272 120.998 9.95552C120.726 10.0938 120.462 10.2424 120.204 10.4007C120 10.2667 119.789 10.1395 119.573 10.0192C117.847 9.0613 115.941 8.67517 114.017 8.67517C112.169 8.67517 110.374 9.04422 108.704 9.84552C107.55 9.03212 106.202 8.6353 104.804 8.6353C103.35 8.6353 101.934 9.06356 100.745 9.96656C101.002 9.20282 101.117 8.40935 101.117 7.62958C101.117 5.8197 100.501 3.85002 98.786 2.42547C97.4939 1.35189 95.9244 0.780046 94.2376 0.780046C92.4356 0.780046 90.799 1.44157 89.497 2.62016C88.2464 3.75092 87.5349 5.20921 87.3483 6.7803C87.3407 6.74107 87.3329 6.70204 87.3248 6.66323C87.0616 5.30782 86.3954 4.09147 85.3716 3.13897C84.1251 1.97931 82.5078 1.2386 80.6467 1.2386C79.4576 1.2386 78.2761 1.53408 77.2004 2.16931C76.2215 2.73458 75.3753 3.53911 74.7734 4.58195C74.2058 5.55249 73.9317 6.58126 73.83 7.54933L73.8248 7.59934L73.8207 7.64945C73.7687 8.29182 73.7483 9.08302 73.7473 9.97294C73.4033 10.1632 73.0661 10.3924 72.7425 10.667C72.4914 10.8797 72.2621 11.1077 72.0547 11.3488C71.5093 10.8753 70.9097 10.4572 70.26 10.0972C68.4438 9.09103 66.4512 8.6353 64.3893 8.6353C62.4148 8.6353 60.497 9.02493 58.7316 9.9053C58.5609 9.78015 58.3815 9.66187 58.1933 9.55133C57.1196 8.92072 55.9469 8.6353 54.7781 8.6353C53.2203 8.6353 51.6359 9.11948 50.3549 10.2574V8.32738C50.3549 6.57782 49.9643 4.44713 48.3947 2.77491C46.9754 1.23439 45.0999 0.5408 43.177 0.5408C41.2237 0.5408 39.3638 1.2739 37.9671 2.80984C36.8157 4.07591 36.3133 5.5871 36.1376 7.00697C35.0642 5.89721 33.7641 5.01098 32.3094 4.41919C29.5694 3.30453 26.5045 3.32544 23.7871 4.47733C21.8095 5.31825 20.1849 6.59413 19.0118 8.15803C18.1608 9.29252 17.5475 10.5786 17.2094 11.9601C15.9816 11.2444 14.6313 10.7934 13.2249 10.6188C11.2862 10.3781 9.24098 10.6627 7.26341 11.5036C4.5486 12.6617 2.40551 14.8554 1.30432 17.6034C0.203126 20.3514 0.233755 23.4294 1.38949 26.162C6.32421 37.7933 27.4684 39.9154 28.3637 39.9937C28.6004 40.016 28.8387 39.979 29.0573 39.886C29.2759 39.7931 29.4679 39.6471 29.6162 39.4611C29.8985 39.112 33.3182 34.7737 36.0587 29.069V31.3548C36.0587 33.1146 36.452 35.1895 37.9364 36.8582L37.9684 36.8942L38.0012 36.9294C39.3859 38.4159 41.2167 39.1613 43.177 39.1613C45.1068 39.1613 46.9889 38.4627 48.4101 36.9105C48.699 36.598 48.9478 36.2701 49.1614 35.932C49.3614 36.2598 49.5942 36.5789 49.864 36.8848C51.1889 38.3869 52.9901 39.1613 54.9373 39.1613C56.795 39.1613 58.6068 38.4852 59.9811 37.0013C61.4841 35.3795 61.8764 33.3454 61.8764 31.6539V24.8354C61.8764 23.7978 61.9079 22.9951 61.9599 22.4007C61.972 22.263 61.9844 22.1452 61.9965 22.0455C62.0032 22.2115 62.0069 22.3902 62.0069 22.5825V31.6539C62.0069 33.3376 62.4065 35.29 63.8131 36.8848C65.1678 38.4207 66.9996 39.1613 68.9262 39.1613C70.8212 39.1613 72.6386 38.4405 73.9859 36.9202C74.5306 36.3117 74.9235 35.6487 75.2015 34.9695C75.8379 36.0248 76.7062 36.9221 77.7794 37.6226C79.6399 38.8371 81.8791 39.1613 83.93 39.1613C85.9765 39.1613 88.0924 38.9128 89.8834 38.0405C89.9825 37.9923 90.0821 37.9413 90.182 37.8876C91.3472 38.7374 92.7289 39.1613 94.1779 39.1613C96.0794 39.1613 97.8704 38.4395 99.2217 36.9813C99.3531 36.8396 99.476 36.6948 99.5909 36.5473C99.6804 36.663 99.7747 36.7771 99.8741 36.8894L99.9075 36.9272L99.9418 36.9641C101.314 38.4418 103.127 39.1613 105.043 39.1613C106.949 39.1613 108.811 38.4534 110.194 36.8866C110.747 36.2608 111.145 35.5788 111.425 34.8798C111.7 35.5772 112.094 36.2595 112.645 36.8848L112.663 36.9051L112.681 36.9251C114.052 38.4394 115.882 39.1613 117.798 39.1613C119.696 39.1613 121.556 38.4699 122.955 36.9251C123.493 36.3302 123.886 35.6815 124.168 35.0156C124.444 35.6681 124.826 36.3035 125.345 36.8894L125.378 36.9272L125.412 36.9641C126.784 38.4418 128.598 39.1613 130.513 39.1613C132.411 39.1613 134.272 38.4699 135.67 36.9251C136.072 36.4814 136.392 36.0079 136.646 35.5195C136.827 35.7903 137.032 36.054 137.263 36.3077L137.28 36.3264L137.297 36.3448C138.709 37.859 140.567 38.5742 142.51 38.5742C144.43 38.5742 146.28 37.8722 147.685 36.3622C149.253 34.6793 149.646 32.5414 149.646 30.7732V25.3562H155.176C156.363 25.3562 157.828 25.1418 159.155 24.3095V31.0718C159.155 32.7301 159.536 34.665 160.906 36.2583Z" fill="#E5E8EB"/>
<path d="M40.4474 31.4182V8.562C40.4474 7.37467 40.7197 6.48417 41.2643 5.8905C41.8089 5.29683 42.513 5 43.3764 5C44.2664 5 44.9837 5.29683 45.5283 5.8905C46.0862 6.47098 46.3652 7.36148 46.3652 8.562V31.4182C46.3652 32.6187 46.0862 33.5158 45.5283 34.1095C44.9837 34.7032 44.2664 35 43.3764 35C42.5262 35 41.8222 34.7032 41.2643 34.1095C40.7197 33.5026 40.4474 32.6055 40.4474 31.4182Z" fill="#3265AA"/>
<path d="M57.5632 16.0224V16.6755C58.5196 15.4222 59.5624 14.5053 60.6915 13.9248C61.8339 13.3311 63.1423 13.0343 64.6168 13.0343C66.0514 13.0343 67.3332 13.3443 68.4623 13.9644C69.5914 14.5844 70.4349 15.4617 70.9928 16.5963C71.3515 17.2559 71.584 17.9683 71.6902 18.7335C71.7965 19.4987 71.8496 20.4749 71.8496 21.6623V31.715C71.8496 32.7968 71.5972 33.6148 71.0925 34.1689C70.601 34.723 69.9567 35 69.1597 35C68.3494 35 67.6919 34.7164 67.1871 34.1491C66.6823 33.5818 66.4299 32.7704 66.4299 31.715V22.7111C66.4299 20.9301 66.1776 19.5712 65.6728 18.6346C65.1813 17.6847 64.1917 17.2098 62.7039 17.2098C61.7342 17.2098 60.8509 17.5 60.0539 18.0805C59.2568 18.6478 58.6724 19.4327 58.3004 20.4354C58.0348 21.2401 57.9019 22.7441 57.9019 24.9472V31.715C57.9019 32.81 57.6429 33.6346 57.1248 34.1887C56.6201 34.7295 55.9625 35 55.1522 35C54.3685 35 53.7243 34.7164 53.2195 34.1491C52.7147 33.5818 52.4623 32.7704 52.4623 31.715V16.1016C52.4623 15.0726 52.6881 14.3074 53.1398 13.8061C53.5914 13.2916 54.2091 13.0343 54.9928 13.0343C55.471 13.0343 55.9028 13.1464 56.288 13.3707C56.6732 13.595 56.9787 13.9314 57.2045 14.3799C57.4436 14.8285 57.5632 15.376 57.5632 16.0224Z" fill="#3265AA"/>
<path d="M77.5881 13.5092H78.1859V10.2639C78.1859 9.39314 78.2058 8.71372 78.2457 8.22559C78.2988 7.72427 78.4316 7.29551 78.6442 6.93931C78.8567 6.56992 79.1622 6.27309 79.5607 6.04881C79.9592 5.81135 80.4042 5.69261 80.8957 5.69261C81.5865 5.69261 82.2108 5.94987 82.7687 6.46438C83.1406 6.80739 83.3731 7.22955 83.4661 7.73087C83.5723 8.219 83.6255 8.91821 83.6255 9.8285V13.5092H85.618C86.3885 13.5092 86.9729 13.6939 87.3714 14.0633C87.7832 14.4195 87.9891 14.8813 87.9891 15.4485C87.9891 16.1741 87.6969 16.6821 87.1124 16.9723C86.5412 17.2625 85.7176 17.4076 84.6417 17.4076H83.6255V27.3417C83.6255 28.186 83.652 28.839 83.7052 29.3008C83.7716 29.7493 83.931 30.1187 84.1834 30.409C84.4491 30.686 84.8741 30.8245 85.4586 30.8245C85.7774 30.8245 86.2091 30.7718 86.7537 30.6662C87.2984 30.5475 87.7234 30.4881 88.029 30.4881C88.4673 30.4881 88.8592 30.6662 89.2046 31.0224C89.5632 31.3654 89.7425 31.7942 89.7425 32.3087C89.7425 33.1794 89.2643 33.8456 88.3079 34.3074C87.3515 34.7691 85.9767 35 84.1834 35C82.4831 35 81.1946 34.7164 80.3179 34.1491C79.4412 33.5818 78.8633 32.7968 78.5844 31.7942C78.3187 30.7916 78.1859 29.4525 78.1859 27.777V17.4076H77.4686C76.6848 17.4076 76.0871 17.223 75.6753 16.8536C75.2635 16.4842 75.0576 16.0158 75.0576 15.4485C75.0576 14.8813 75.2701 14.4195 75.6952 14.0633C76.1336 13.6939 76.7645 13.5092 77.5881 13.5092Z" fill="#3265AA"/>
<path d="M97.1946 16.1016V31.715C97.1946 32.7968 96.9356 33.6148 96.4175 34.1689C95.8995 34.723 95.2419 35 94.4449 35C93.6479 35 92.997 34.7164 92.4922 34.1491C92.0007 33.5818 91.755 32.7704 91.755 31.715V16.2599C91.755 15.1913 92.0007 14.3865 92.4922 13.8456C92.997 13.3047 93.6479 13.0343 94.4449 13.0343C95.2419 13.0343 95.8995 13.3047 96.4175 13.8456C96.9356 14.3865 97.1946 15.1385 97.1946 16.1016ZM94.5047 10.5211C93.7475 10.5211 93.0966 10.2902 92.552 9.8285C92.0207 9.36675 91.755 8.71372 91.755 7.86939C91.755 7.10422 92.0273 6.47757 92.5719 5.98945C93.1298 5.48813 93.7741 5.23747 94.5047 5.23747C95.2087 5.23747 95.833 5.46174 96.3777 5.91029C96.9223 6.35884 97.1946 7.01187 97.1946 7.86939C97.1946 8.70053 96.9289 9.35356 96.3976 9.8285C95.8662 10.2902 95.2353 10.5211 94.5047 10.5211Z" fill="#3265AA"/>
<path d="M120.926 24.4129V31.5963C120.926 32.7309 120.667 33.5818 120.149 34.1491C119.63 34.7164 118.946 35 118.096 35C117.273 35 116.602 34.7164 116.084 34.1491C115.579 33.5818 115.327 32.7309 115.327 31.5963V22.9881C115.327 21.6293 115.28 20.5739 115.187 19.8219C115.094 19.0699 114.842 18.4565 114.43 17.9815C114.018 17.4934 113.367 17.2493 112.477 17.2493C110.697 17.2493 109.522 17.8562 108.951 19.0699C108.393 20.2836 108.114 22.0251 108.114 24.2942V31.5963C108.114 32.7177 107.855 33.5686 107.337 34.1491C106.832 34.7164 106.161 35 105.324 35C104.501 35 103.823 34.7164 103.292 34.1491C102.774 33.5686 102.515 32.7177 102.515 31.5963V16.1412C102.515 15.1253 102.747 14.3536 103.212 13.8259C103.69 13.2982 104.315 13.0343 105.085 13.0343C105.829 13.0343 106.447 13.285 106.938 13.7863C107.443 14.2744 107.695 14.9538 107.695 15.8245V16.3391C108.638 15.2177 109.648 14.3931 110.724 13.8654C111.8 13.3377 112.995 13.0739 114.31 13.0739C115.679 13.0739 116.854 13.3443 117.837 13.8852C118.82 14.4261 119.63 15.2441 120.268 16.3391C121.185 15.2309 122.168 14.4129 123.217 13.8852C124.266 13.3443 125.429 13.0739 126.704 13.0739C128.192 13.0739 129.474 13.3641 130.55 13.9446C131.626 14.5251 132.429 15.3562 132.961 16.438C133.425 17.4142 133.658 18.9512 133.658 21.0488V31.5963C133.658 32.7309 133.399 33.5818 132.881 34.1491C132.363 34.7164 131.679 35 130.828 35C130.005 35 129.327 34.7164 128.796 34.1491C128.278 33.5686 128.019 32.7177 128.019 31.5963V22.5132C128.019 21.3522 127.966 20.4222 127.86 19.723C127.767 19.0237 127.501 18.4367 127.063 17.9617C126.624 17.4868 125.96 17.2493 125.07 17.2493C124.353 17.2493 123.669 17.4604 123.018 17.8826C122.38 18.3047 121.882 18.872 121.523 19.5844C121.125 20.4947 120.926 22.1042 120.926 24.4129Z" fill="#3265AA"/>
<path d="M163.563 31.0393V7.47101C163.563 6.38283 163.802 5.56006 164.279 5.00271C164.769 4.44535 165.425 4.16667 166.247 4.16667C167.069 4.16667 167.731 4.44535 168.235 5.00271C168.738 5.54679 168.99 6.36956 168.99 7.47101V31.0393C168.99 32.1408 168.732 32.9702 168.215 33.5276C167.711 34.0716 167.055 34.3437 166.247 34.3437C165.452 34.3437 164.802 34.0584 164.299 33.4877C163.808 32.9171 163.563 32.101 163.563 31.0393Z" fill="#F76448"/>
<path d="M157.301 9.22271H145.672V16.6873H155.393C156.294 16.6873 156.963 16.893 157.4 17.3044C157.851 17.7025 158.076 18.24 158.076 18.9168C158.076 19.5936 157.851 20.131 157.4 20.5291C156.95 20.9273 156.281 21.1263 155.393 21.1263H145.672V30.7408C145.672 31.9616 145.393 32.8707 144.837 33.4678C144.293 34.0517 143.591 34.3437 142.729 34.3437C141.855 34.3437 141.139 34.0451 140.582 33.4479C140.039 32.8508 139.767 31.9484 139.767 30.7408V8.28714C139.767 7.43783 139.893 6.74777 140.145 6.21695C140.397 5.67286 140.788 5.28138 141.318 5.04252C141.861 4.79038 142.55 4.66431 143.385 4.66431H157.301C158.242 4.66431 158.938 4.87664 159.388 5.30129C159.852 5.71267 160.084 6.25676 160.084 6.93356C160.084 7.62362 159.852 8.18098 159.388 8.60563C158.938 9.01702 158.242 9.22271 157.301 9.22271Z" fill="#F76448"/>
<path fill-rule="evenodd" clip-rule="evenodd" d="M194.178 27.7748C194.681 26.408 194.933 24.915 194.933 23.296C194.933 21.6638 194.681 20.1708 194.178 18.8173C193.687 17.4637 192.965 16.2959 192.011 15.3139C191.699 14.9934 191.367 14.6969 191.015 14.4245C191.031 14.3016 191.039 14.1821 191.038 14.0657C191.04 13.842 191.01 13.6301 190.949 13.4299C190.767 12.7721 190.34 12.2708 189.668 11.926C189.016 11.5915 188.37 11.5422 187.73 11.778C187.366 11.9122 187.031 12.1529 186.726 12.5002C185.899 12.3323 185.023 12.2484 184.099 12.2484C182.482 12.2484 181.004 12.5138 179.665 13.0446C178.327 13.5622 177.187 14.3053 176.246 15.274C175.305 16.2428 174.583 17.4106 174.079 18.7774C173.576 20.1443 173.324 21.6505 173.324 23.296C173.324 24.9283 173.569 26.4212 174.059 27.7748C174.563 29.1151 175.292 30.2829 176.246 31.2782C176.44 31.4753 176.641 31.6632 176.849 31.8421C176.806 32.0517 176.785 32.2534 176.786 32.4471C176.785 32.657 176.809 32.8577 176.86 33.0491C177.053 33.7121 177.47 34.2082 178.112 34.5376C178.784 34.8824 179.44 34.9369 180.08 34.701C180.442 34.5724 180.775 34.3391 181.079 34.0013C182.014 34.2296 183.021 34.3437 184.099 34.3437C185.755 34.3437 187.246 34.0849 188.572 33.5674C189.897 33.0365 191.037 32.2801 191.991 31.2981C192.945 30.3161 193.674 29.1417 194.178 27.7748ZM188.747 19.3236L183.166 30.2289C183.465 30.2782 183.775 30.3028 184.099 30.3028C185.742 30.3028 187.047 29.6858 188.015 28.4516C188.996 27.2042 189.486 25.4857 189.486 23.296C189.486 21.7252 189.24 20.4011 188.747 19.3236ZM179.299 26.7309L184.641 16.2928C184.464 16.2771 184.284 16.2693 184.099 16.2693C183.038 16.2693 182.104 16.548 181.296 17.1054C180.487 17.6495 179.864 18.459 179.427 19.5339C178.99 20.6088 178.771 21.8628 178.771 23.296C178.771 24.5897 178.947 25.7346 179.299 26.7309Z" fill="#F76448"/>
<path d="M204.614 26.5008V31.0393C204.614 32.1408 204.356 32.9702 203.839 33.5276C203.322 34.0716 202.666 34.3437 201.871 34.3437C201.089 34.3437 200.446 34.065 199.943 33.5076C199.439 32.9503 199.187 32.1275 199.187 31.0393V15.911C199.187 13.4693 200.068 12.2484 201.831 12.2484C202.732 12.2484 203.382 12.5337 203.779 13.1043C204.177 13.6749 204.396 14.5176 204.435 15.6323C205.085 14.5176 205.747 13.6749 206.423 13.1043C207.112 12.5337 208.027 12.2484 209.167 12.2484C210.306 12.2484 211.413 12.5337 212.487 13.1043C213.56 13.6749 214.097 14.4314 214.097 15.3736C214.097 16.0371 213.865 16.5878 213.401 17.0257C212.95 17.4504 212.46 17.6627 211.93 17.6627C211.731 17.6627 211.247 17.5433 210.479 17.3044C209.723 17.0523 209.054 16.9262 208.471 16.9262C207.676 16.9262 207.026 17.1385 206.523 17.5632C206.019 17.9746 205.628 18.5917 205.35 19.4144C205.071 20.2372 204.879 21.2192 204.773 22.3605C204.667 23.4885 204.614 24.8686 204.614 26.5008Z" fill="#F76448"/>
<path d="M218.49 12.7261H217.894C217.072 12.7261 216.443 12.9119 216.005 13.2835C215.581 13.6418 215.369 14.1062 215.369 14.6769C215.369 15.2475 215.574 15.7186 215.985 16.0902C216.396 16.4617 216.993 16.6475 217.774 16.6475H218.49V27.0781C218.49 28.7635 218.623 30.1104 218.888 31.119C219.166 32.1275 219.743 32.9171 220.617 33.4877C221.492 34.0584 222.777 34.3437 224.474 34.3437C226.263 34.3437 227.635 34.1115 228.589 33.647C229.543 33.1825 230.02 32.5124 230.02 31.6365C230.02 31.119 229.841 30.6877 229.484 30.3426C229.139 29.9843 228.748 29.8052 228.311 29.8052C228.006 29.8052 227.582 29.8649 227.038 29.9843C226.495 30.0905 226.064 30.1436 225.746 30.1436C225.163 30.1436 224.739 30.0042 224.474 29.7256C224.222 29.4336 224.063 29.062 223.997 28.6108C223.944 28.1464 223.917 27.4895 223.917 26.6402V16.6475H224.931C226.005 16.6475 226.826 16.5016 227.396 16.2096C227.979 15.9177 228.271 15.4067 228.271 14.6769C228.271 14.1062 228.065 13.6418 227.655 13.2835C227.257 12.9119 226.674 12.7261 225.905 12.7261H223.917V9.02365C223.917 8.10799 223.864 7.40466 223.758 6.91365C223.665 6.40937 223.434 5.98472 223.062 5.63969C222.506 5.12214 221.883 4.86337 221.194 4.86337C220.703 4.86337 220.259 4.9828 219.862 5.22167C219.464 5.44727 219.159 5.74585 218.947 6.11742C218.735 6.47573 218.603 6.90702 218.55 7.41129C218.51 7.9023 218.49 8.58573 218.49 9.46158V12.7261Z" fill="#F76448"/>
<path d="M249.502 27.2374C249.502 28.7369 249.138 30.0242 248.409 31.0991C247.68 32.1607 246.6 32.9702 245.168 33.5276C243.75 34.0716 242.021 34.3437 239.98 34.3437C238.032 34.3437 236.362 34.0451 234.97 33.4479C233.579 32.8508 232.552 32.1076 231.889 31.2185C231.226 30.3161 230.895 29.4137 230.895 28.5113C230.895 27.9142 231.107 27.4032 231.531 26.9786C231.955 26.5539 232.492 26.3416 233.141 26.3416C233.711 26.3416 234.149 26.4809 234.453 26.7596C234.758 27.0383 235.05 27.4298 235.328 27.9341C235.885 28.9028 236.547 29.626 237.316 30.1038C238.098 30.5815 239.158 30.8204 240.497 30.8204C241.583 30.8204 242.471 30.5815 243.161 30.1038C243.863 29.6128 244.214 29.0554 244.214 28.4317C244.214 27.4762 243.85 26.7795 243.121 26.3416C242.405 25.9037 241.219 25.4857 239.562 25.0875C237.694 24.6231 236.17 24.1387 234.99 23.6344C233.824 23.1169 232.89 22.4401 232.187 21.604C231.485 20.768 231.134 19.7395 231.134 18.5187C231.134 17.4305 231.458 16.402 232.108 15.4333C232.757 14.4645 233.711 13.6949 234.97 13.1242C236.243 12.5403 237.773 12.2484 239.562 12.2484C240.967 12.2484 242.226 12.3944 243.34 12.6863C244.466 12.9783 245.4 13.3697 246.143 13.8607C246.898 14.3517 247.468 14.8958 247.852 15.493C248.25 16.0902 248.449 16.6741 248.449 17.2447C248.449 17.8684 248.237 18.3793 247.812 18.7774C247.402 19.1756 246.812 19.3746 246.043 19.3746C245.487 19.3746 245.009 19.2154 244.612 18.8969C244.227 18.5784 243.784 18.1006 243.28 17.4637C242.869 16.9328 242.385 16.5082 241.829 16.1897C241.272 15.8712 240.517 15.712 239.562 15.712C238.582 15.712 237.767 15.9243 237.117 16.3489C236.468 16.7603 236.143 17.2779 236.143 17.9016C236.143 18.4722 236.382 18.9433 236.859 19.3149C237.336 19.6732 237.979 19.9718 238.787 20.2106C239.596 20.4495 240.709 20.7415 242.127 21.0865C243.81 21.4979 245.182 21.9889 246.242 22.5595C247.315 23.1302 248.124 23.8069 248.667 24.5899C249.224 25.3596 249.502 26.2421 249.502 27.2374Z" fill="#F76448"/>
<path d="M38.5068 10.208C43.4551 21.9239 30.2633 38.7527 29.6964 39.4572C29.5476 39.6445 29.3551 39.7916 29.1359 39.8852C28.9167 39.9788 28.6777 40.0161 28.4404 39.9936C27.5427 39.9148 6.34024 37.7773 1.39194 26.0614C0.233023 23.3089 0.202309 20.2085 1.30653 17.4405C2.41076 14.6725 4.55974 12.4629 7.28203 11.2964C10.7036 9.83493 14.327 10.0416 17.2554 11.7562C18.0617 8.44634 20.4296 5.68049 23.8512 4.21901C26.5761 3.05875 29.6494 3.03768 32.3969 4.16044C35.1445 5.2832 37.3418 7.45809 38.5068 10.208Z" fill="#F76448"/>
<path fill-rule="evenodd" clip-rule="evenodd" d="M29.6964 39.4572C30.2633 38.7527 43.4551 21.9239 38.5068 10.208C37.3418 7.45809 35.1445 5.2832 32.3969 4.16044C29.6494 3.03768 26.5761 3.05875 23.8512 4.21901C21.8682 5.06604 20.239 6.3512 19.0627 7.92648C18.2094 9.06922 17.5944 10.3646 17.2554 11.7562C16.0242 11.0353 14.6701 10.581 13.2599 10.4051C11.3159 10.1627 9.26504 10.4494 7.28203 11.2964C4.55974 12.4629 2.41076 14.6725 1.30653 17.4405C0.202309 20.2085 0.233023 23.3089 1.39194 26.0614C6.34024 37.7773 27.5427 39.9148 28.4404 39.9936C28.6777 40.0161 28.9167 39.9788 29.1359 39.8852C29.3551 39.7916 29.5476 39.6445 29.6964 39.4572ZM5.26287 24.4104C4.5367 22.6841 4.51937 20.7433 5.20887 19.0149C5.89805 17.2873 7.23668 15.9128 8.92797 15.1874C11.2109 14.213 13.433 14.411 15.1398 15.4104L20.0009 18.2566L21.3393 12.7623C21.8092 10.8332 23.2103 9.08749 25.4928 8.11184C27.1862 7.39147 29.0993 7.37705 30.8141 8.07779C32.5296 8.77884 33.9064 10.1389 34.6376 11.8629C36.3444 15.9068 35.057 21.5243 32.3795 27.1315C30.6005 30.8572 28.4979 33.9758 27.3259 35.5997C25.35 35.3204 21.6584 34.6767 17.757 33.3774C11.8855 31.4219 6.97172 28.4534 5.26287 24.4104Z" fill="#E5E8EB"/>
<path d="M10.3026 23.353C10.9854 21.5936 10.0202 18.6579 12.2726 16.7784C12.2726 16.7784 8.07858 17.221 7.0169 20.9133C6.1522 23.9205 9.64475 25.0482 10.3026 23.353Z" fill="white"/>
</svg>
