<svg width="16" height="10" viewBox="0 0 16 10" fill="none" xmlns="http://www.w3.org/2000/svg">
<path d="M15.6834 2.23482L8.59103 9.34827C8.5066 9.4327 8.41513 9.49265 8.31662 9.52811C8.21812 9.56358 8.11258 9.58102 8 9.58046C7.88742 9.58046 7.78188 9.56273 7.68338 9.52727C7.58487 9.49181 7.4934 9.43214 7.40897 9.34827L0.295515 2.23482C0.0985048 2.03781 9.28821e-08 1.79154 9.64061e-08 1.49603C9.993e-08 1.20051 0.105541 0.947217 0.316623 0.736135C0.527705 0.525053 0.773967 0.419512 1.05541 0.419512C1.33685 0.419512 1.58311 0.525053 1.7942 0.736135L8 6.94194L14.2058 0.736135C14.4028 0.539126 14.6457 0.44062 14.9345 0.44062C15.2232 0.44062 15.4729 0.546161 15.6834 0.757242C15.8945 0.968325 16 1.21459 16 1.49603C16 1.77747 15.8945 2.02373 15.6834 2.23482Z" fill="#212B36"/>
</svg>
